<svg width="694" height="371" viewBox="0 0 694 371" fill="none" xmlns="http://www.w3.org/2000/svg">
<path fill-rule="evenodd" clip-rule="evenodd" d="M36.0239 187.429L33.3281 184.708C35.7884 182.208 38.7218 180.221 41.9573 178.866C45.1928 177.51 48.6657 176.812 52.1737 176.812C55.6816 176.812 59.1545 177.51 62.39 178.866C65.6255 180.221 68.5588 182.208 71.0192 184.708L68.274 187.33C66.1699 185.206 63.666 183.52 60.9068 182.37C58.1476 181.219 55.1878 180.627 52.1984 180.627C49.2089 180.627 46.2491 181.219 43.4899 182.37C40.7307 183.52 38.2268 185.206 36.1228 187.33M45.6198 196.432L43.1466 193.959C44.3478 192.72 45.7854 191.735 47.3743 191.063C48.9632 190.39 50.6709 190.044 52.3962 190.044C54.1215 190.044 55.8293 190.39 57.4182 191.063C59.0071 191.735 60.4447 192.72 61.6459 193.959L59.1727 196.432C57.3855 194.669 54.9803 193.675 52.4704 193.662C51.2249 193.652 49.9901 193.893 48.8389 194.368C47.6878 194.844 46.6437 195.546 45.7682 196.432M52.4704 203.06L47.6725 198.361C48.9741 197.127 50.6786 196.407 52.4704 196.333C54.2517 196.389 55.9468 197.113 57.2189 198.361L52.4704 203.06ZM52.4704 187.33C54.5598 187.313 56.6303 187.725 58.5534 188.542C60.4765 189.359 62.211 190.563 63.6491 192.079L66.6417 189.086C64.7967 187.179 62.587 185.662 60.144 184.626C57.7009 183.59 55.0745 183.056 52.421 183.056C49.7674 183.056 47.141 183.59 44.698 184.626C42.2549 185.662 40.0452 187.179 38.2003 189.086L41.1681 192.104C42.6245 190.583 44.3758 189.375 46.3149 188.554C48.254 187.733 50.3401 187.317 52.4457 187.33" fill="#0E6EB6"/>
<path fill-rule="evenodd" clip-rule="evenodd" d="M34.3665 206.325H69.6091C44.3334 270.261 39.9312 307.732 65.5779 306.743C9.31336 310.057 16.6092 255.396 34.3913 206.325" fill="#0E6EB6"/>
<path fill-rule="evenodd" clip-rule="evenodd" d="M66.7656 108.258C98.9168 55.8725 151.051 50.5301 188.198 69.5995C229.401 90.7959 242.113 139.842 231.849 183.027C222.822 222.303 196.953 258.191 163.516 281.267C143.049 295.152 119.794 304.396 95.3802 308.35C114.098 302.245 130.848 291.257 143.904 276.519C152.006 267.72 159.023 257.979 164.802 247.506C183.771 221.932 192.551 196.877 193.169 175.062C194.406 145.803 181.669 116.766 154.786 103.336C131.389 91.439 99.8813 92.0573 66.7656 108.282" fill="#F26329"/>
<path fill-rule="evenodd" clip-rule="evenodd" d="M42.4789 167.346C68.6945 115.406 122.684 111.77 154.489 134.252C167.023 143.148 175.831 156.36 179.22 171.352C183.548 190.446 180.383 210.233 173.21 229.105C166.614 246.663 156.659 262.768 143.903 276.518C125.8 296.528 99.8811 311.788 72.1816 311.491C61.1115 311.55 50.2322 308.61 40.6982 302.983C53.7813 309.29 74.1354 307.064 86.5755 302.093C107.152 293.659 123.673 276.172 133.986 256.831C146.723 233.136 156.764 194.997 136.459 173.158C118.034 152.877 81.2829 145.951 42.4789 167.321" fill="#09A14A"/>
<path d="M658.297 197.1L664.53 179.218C663.788 179.218 662.996 179.218 662.329 179.218C660.39 179.139 658.457 179.461 656.648 180.163C654.84 180.866 653.195 181.933 651.818 183.299C649.057 186.022 647.179 189.512 646.426 193.316C645.882 195.04 645.943 196.899 646.599 198.584C646.915 199.206 647.407 199.721 648.014 200.065C648.621 200.408 649.316 200.564 650.012 200.513C653.06 200.321 655.969 199.169 658.322 197.223M678.107 171.278L665.049 207.933H654.439L655.651 204.446C652.461 206.993 648.55 208.472 644.472 208.675C642.857 208.745 641.255 208.357 639.85 207.556C638.446 206.756 637.296 205.574 636.533 204.149C634.726 200.563 634.363 196.419 635.519 192.574C636.855 186.057 640.511 180.248 645.808 176.225C651.677 171.788 658.911 169.54 666.261 169.868C670.204 169.827 674.139 170.25 677.984 171.13M634.753 170.66L621.521 207.933H610.911L624.192 170.66H634.753ZM627.531 160.222C627.836 158.66 628.658 157.247 629.865 156.21C631.073 155.173 632.594 154.574 634.184 154.509C634.862 154.491 635.535 154.631 636.149 154.919C636.763 155.206 637.301 155.633 637.721 156.166C638.151 156.738 638.443 157.402 638.571 158.106C638.7 158.811 638.663 159.535 638.463 160.222C638.106 161.844 637.239 163.309 635.989 164.402C634.777 165.405 633.259 165.964 631.686 165.985C631.023 166.003 630.364 165.87 629.76 165.595C629.156 165.321 628.622 164.913 628.199 164.402C627.794 163.794 627.528 163.104 627.421 162.382C627.314 161.659 627.369 160.921 627.581 160.222M594.317 199.153L601.118 179.786C600.243 179.645 599.358 179.579 598.471 179.589C594.989 179.516 591.589 180.652 588.851 182.804C586.246 184.797 584.425 187.642 583.707 190.842C583.391 191.923 583.332 193.062 583.534 194.17C583.736 195.278 584.193 196.323 584.869 197.223C585.687 198.091 586.69 198.763 587.803 199.191C588.916 199.62 590.111 199.792 591.299 199.697C592.316 199.639 593.326 199.49 594.317 199.252M621.521 151.838L601.959 207.512C597.837 208.277 593.66 208.699 589.469 208.774C583.113 208.774 578.439 207.141 575.422 203.827C572.404 200.513 571.563 196.234 572.775 190.793C574.026 184.928 577.279 179.681 581.975 175.953C586.824 171.903 592.972 169.742 599.288 169.868C600.992 169.896 602.694 170.028 604.382 170.264L610.887 151.739L621.521 151.838ZM549.107 170.66L547.5 174.84C551.32 171.894 555.94 170.17 560.756 169.893C561.991 169.777 563.235 169.998 564.355 170.534C565.474 171.07 566.427 171.9 567.112 172.935C567.766 174.235 568.158 175.651 568.264 177.103C568.37 178.555 568.189 180.013 567.73 181.394C567.497 182.526 567.192 183.641 566.815 184.733L558.678 207.958H548.118L555.958 185.698C556.248 185.074 556.463 184.418 556.601 183.744C557.343 180.058 556.601 178.253 554.449 178.253C552.297 178.253 548.563 180.108 544.334 183.991L535.851 208.007H525.241L538.497 170.66H549.107ZM534.021 151.838L514.235 208.032H502.809L522.595 151.838H534.021ZM489.998 151.838L470.213 208.032H459.702L479.487 151.838H489.998ZM443.008 197.199L449.191 179.316C448.449 179.316 447.658 179.316 446.99 179.316C445.059 179.239 443.133 179.562 441.333 180.264C439.533 180.966 437.897 182.033 436.529 183.397C433.791 186.056 431.898 189.463 431.088 193.192C430.514 194.916 430.594 196.79 431.31 198.46C431.614 199.081 432.097 199.596 432.697 199.94C433.296 200.283 433.985 200.44 434.674 200.389C437.724 200.178 440.635 199.029 443.008 197.1M462.794 171.154L449.809 207.933H439.249L440.486 204.446C437.291 206.969 433.396 208.446 429.332 208.675C427.688 208.774 426.05 208.403 424.61 207.606C423.169 206.809 421.985 205.618 421.195 204.173C419.426 200.576 419.064 196.448 420.181 192.598C421.508 186.079 425.166 180.267 430.469 176.25C436.357 171.811 443.607 169.564 450.972 169.893C454.907 169.855 458.833 170.278 462.67 171.154M416.719 162.696L413.602 170.66H421.393L418.202 178.822H410.362L405.713 190.991C405.306 191.909 405.007 192.872 404.823 193.86C404.056 197.199 404.823 198.806 406.974 198.806C409.281 198.474 411.504 197.71 413.528 196.556L411.376 206.449C408.402 207.977 405.123 208.822 401.781 208.922C400.354 209.023 398.925 208.761 397.628 208.16C396.33 207.558 395.206 206.638 394.361 205.484C393.599 204.127 393.117 202.632 392.943 201.085C392.769 199.539 392.906 197.974 393.347 196.481C393.669 195.418 393.99 194.33 394.361 193.241L400.025 178.97H392.852L395.969 170.808H403.19L406.183 162.918L416.719 162.696ZM390.874 170.66L377.667 207.933H367.107L380.264 170.66H390.874ZM383.578 160.222C383.944 158.639 384.812 157.216 386.051 156.166C387.246 155.14 388.756 154.555 390.33 154.509C391.012 154.487 391.689 154.625 392.308 154.913C392.927 155.201 393.469 155.63 393.891 156.166C394.291 156.753 394.563 157.417 394.691 158.116C394.819 158.814 394.799 159.532 394.633 160.222C394.238 161.829 393.377 163.283 392.16 164.402C390.945 165.383 389.442 165.939 387.881 165.985C387.216 166.018 386.552 165.892 385.946 165.617C385.339 165.341 384.807 164.925 384.394 164.402C383.968 163.804 383.68 163.119 383.552 162.396C383.424 161.673 383.458 160.93 383.652 160.222M349.152 216.194C349.498 214.463 348.088 213.176 344.972 212.509L340.545 211.445C339.089 211.533 337.663 211.893 336.341 212.509C335.546 212.724 334.822 213.147 334.245 213.733C333.667 214.32 333.255 215.05 333.051 215.848C332.507 218.469 334.832 219.731 340.075 219.731C342.274 219.822 344.472 219.546 346.58 218.915C347.194 218.717 347.746 218.362 348.18 217.885C348.614 217.407 348.915 216.824 349.053 216.194M348.608 191.461C352.441 191.461 354.914 188.74 356.027 183.397C356.224 182.756 356.289 182.08 356.216 181.413C356.144 180.745 355.937 180.099 355.607 179.514C355.216 179.02 354.709 178.63 354.13 178.379C353.552 178.129 352.92 178.026 352.293 178.08C348.434 178.08 345.887 180.776 344.601 186.291C343.884 189.68 345.145 191.461 348.509 191.461M374.205 170.66L371.385 178.822H365.722C366.11 180.798 366.11 182.831 365.722 184.807C364.861 188.658 362.683 192.087 359.564 194.503C356.22 197.132 352.069 198.522 347.816 198.435C346.16 198.39 344.503 198.506 342.87 198.782C342.426 198.824 342.008 199.012 341.682 199.316C341.356 199.62 341.138 200.024 341.064 200.463C340.941 200.909 341.064 201.304 341.757 201.799C344.185 202.519 346.666 203.048 349.176 203.382C353.554 204.149 356.596 205.385 358.03 207.389C358.82 208.434 359.356 209.648 359.596 210.936C359.837 212.223 359.775 213.549 359.415 214.809C357.659 222.872 350.636 226.978 338.369 226.978C334.178 227.291 329.983 226.434 326.25 224.504C325.072 223.849 324.147 222.819 323.623 221.577C323.098 220.336 323.005 218.954 323.357 217.653C324.173 214.092 327.685 211.198 333.966 209.318C332.684 208.732 331.644 207.718 331.026 206.45C330.408 205.183 330.25 203.74 330.578 202.368C331.345 198.905 334.238 196.605 339.259 195.492C337.564 194.329 336.281 192.659 335.593 190.722C334.904 188.785 334.846 186.68 335.426 184.708C336.402 180.727 338.759 177.221 342.078 174.815C345.572 172.015 349.944 170.543 354.419 170.66H374.205ZM332.161 170.66L318.954 208.032H308.394L321.427 170.66H332.161ZM324.741 160.222C325.111 158.64 325.978 157.219 327.215 156.166C328.399 155.156 329.888 154.572 331.444 154.509C332.124 154.498 332.798 154.641 333.415 154.928C334.032 155.215 334.575 155.639 335.005 156.166C335.422 156.745 335.699 157.412 335.814 158.116C335.93 158.82 335.882 159.54 335.673 160.222C335.283 161.831 334.422 163.286 333.2 164.402C331.98 165.409 330.453 165.967 328.872 165.985C328.211 166.008 327.555 165.877 326.954 165.603C326.353 165.328 325.824 164.917 325.409 164.402C325.01 163.791 324.739 163.106 324.612 162.388C324.484 161.67 324.503 160.933 324.667 160.222M278.098 161.187L265.039 198.633H275.674C278.321 198.679 280.95 198.198 283.408 197.217C285.867 196.236 288.106 194.775 289.993 192.92C294.018 189.187 296.762 184.279 297.833 178.896C298.47 176.731 298.617 174.45 298.262 172.221C297.906 169.992 297.059 167.87 295.781 166.01C294.299 164.281 292.427 162.931 290.32 162.071C288.212 161.211 285.93 160.865 283.662 161.063L278.098 161.187ZM270.109 151.838H287.867C296.819 151.838 303.101 154.311 306.737 159.456C310.372 164.6 311.263 171.154 309.532 179.242C307.895 187.193 303.772 194.417 297.759 199.87C292.482 205.074 285.385 208.02 277.974 208.081H250.423L270.109 151.838Z" fill="black"/>
<path fill-rule="evenodd" clip-rule="evenodd" d="M254.874 246.344H260.983C262.988 246.409 264.953 245.78 266.548 244.563C267.206 243.988 267.724 243.27 268.063 242.464C268.402 241.659 268.552 240.786 268.502 239.913C268.55 239.03 268.4 238.147 268.062 237.329C267.724 236.511 267.206 235.78 266.548 235.189C264.965 233.958 262.985 233.351 260.983 233.483H254.874V246.344ZM254.874 249.732V264.028H251.264V230.02H260.192C263.35 229.854 266.475 230.723 269.095 232.493C270.188 233.385 271.055 234.521 271.626 235.81C272.198 237.099 272.457 238.505 272.385 239.913C272.44 241.291 272.171 242.662 271.6 243.916C271.028 245.17 270.17 246.273 269.095 247.135C266.509 248.991 263.371 249.915 260.192 249.757L254.874 249.732Z" fill="black"/>
<path fill-rule="evenodd" clip-rule="evenodd" d="M286.927 260.739C288.034 260.765 289.135 260.558 290.157 260.132C291.18 259.706 292.102 259.07 292.863 258.266C293.668 257.433 294.301 256.449 294.725 255.371C295.15 254.293 295.357 253.142 295.336 251.983C295.369 250.827 295.167 249.676 294.742 248.6C294.317 247.525 293.678 246.547 292.863 245.726C292.123 244.88 291.211 244.204 290.186 243.743C289.162 243.282 288.05 243.047 286.927 243.054C285.79 243.029 284.662 243.256 283.623 243.718C282.584 244.18 281.66 244.865 280.917 245.726C280.106 246.549 279.469 247.528 279.044 248.603C278.619 249.678 278.415 250.828 278.444 251.983C278.407 254.322 279.296 256.58 280.917 258.266C281.683 259.085 282.616 259.73 283.653 260.157C284.69 260.583 285.807 260.782 286.927 260.739ZM286.927 264.103C285.335 264.168 283.747 263.896 282.268 263.303C280.789 262.711 279.452 261.812 278.345 260.665C276.162 258.247 274.954 255.105 274.954 251.847C274.954 248.59 276.162 245.448 278.345 243.03C280.634 240.787 283.71 239.53 286.915 239.53C290.119 239.53 293.196 240.787 295.484 243.03C297.642 245.46 298.833 248.597 298.833 251.847C298.833 255.097 297.642 258.234 295.484 260.665C294.384 261.806 293.056 262.703 291.585 263.295C290.115 263.888 288.536 264.163 286.952 264.103" fill="black"/>
<path fill-rule="evenodd" clip-rule="evenodd" d="M313.068 257.944L319.746 239.097H321.947L328.748 257.919L335.871 239.443H339.185L329.639 264.053H327.462L320.785 245.602L314.033 264.053H311.881L302.335 239.443H305.995L313.068 257.944Z" fill="black"/>
<path fill-rule="evenodd" clip-rule="evenodd" d="M359.365 248.867C359.148 247.572 358.603 246.354 357.783 245.33C357.151 244.561 356.347 243.953 355.436 243.553C354.525 243.154 353.533 242.974 352.539 243.03C351.586 243.063 350.651 243.301 349.797 243.728C348.944 244.155 348.192 244.76 347.593 245.503C346.835 246.526 346.257 247.673 345.887 248.891L359.365 248.867ZM345.392 251.785C345.385 252.938 345.611 254.08 346.057 255.143C346.504 256.205 347.161 257.167 347.989 257.969C348.792 258.817 349.763 259.489 350.84 259.941C351.918 260.392 353.078 260.613 354.246 260.59C355.68 260.594 357.104 260.343 358.45 259.848C359.879 259.277 361.213 258.493 362.407 257.523L363.199 256.856V260.665H362.951C361.722 261.727 360.316 262.564 358.797 263.138C356.532 263.942 354.094 264.124 351.735 263.662C349.377 263.201 347.186 262.115 345.392 260.516C344.248 259.366 343.353 257.993 342.762 256.483C342.171 254.972 341.896 253.357 341.954 251.736C341.823 248.52 342.879 245.368 344.922 242.881C345.852 241.764 347.022 240.873 348.346 240.273C349.669 239.673 351.112 239.381 352.564 239.419C354.038 239.336 355.511 239.584 356.876 240.145C358.241 240.705 359.463 241.564 360.454 242.659C362.307 245.053 363.268 248.017 363.174 251.043V251.538L345.392 251.785Z" fill="black"/>
<path fill-rule="evenodd" clip-rule="evenodd" d="M374.204 243.03C374.672 242.16 375.309 241.392 376.078 240.771C376.846 240.15 377.731 239.689 378.68 239.415C379.629 239.141 380.623 239.059 381.605 239.174C382.586 239.29 383.534 239.6 384.394 240.086C384.444 240.089 384.492 240.107 384.532 240.138C384.572 240.169 384.601 240.211 384.616 240.26V244.118C384.394 243.994 384.616 244.118 384.32 244.118C378.73 241.002 375.317 245.478 374.204 248.521V264.004H370.767V239.27H374.204V243.03Z" fill="black"/>
<path fill-rule="evenodd" clip-rule="evenodd" d="M409.744 233.581H398.837V230.465H424.31V233.581H413.404V263.682H409.744V233.581Z" fill="black"/>
<path fill-rule="evenodd" clip-rule="evenodd" d="M469.125 234.101V244.959H482.925V248.174H469.125V260.318H485.497V263.558H465.489V230.861H484.854V234.101H469.125Z" fill="black"/>
<path fill-rule="evenodd" clip-rule="evenodd" d="M495.39 242.56C496.214 241.535 497.257 240.707 498.442 240.138C499.628 239.569 500.926 239.272 502.241 239.27C503.441 239.225 504.637 239.436 505.75 239.888C506.863 240.34 507.867 241.023 508.696 241.892C509.239 242.478 509.712 243.126 510.105 243.821L510.6 243.005C511.446 241.861 512.544 240.926 513.81 240.274C515.075 239.622 516.473 239.27 517.896 239.246C519.097 239.197 520.294 239.406 521.407 239.859C522.52 240.311 523.524 240.996 524.351 241.867C525.192 242.762 525.844 243.816 526.269 244.967C526.693 246.119 526.882 247.344 526.824 248.57V263.212H523.238V248.718C523.318 247.096 522.759 245.506 521.68 244.291C521.165 243.714 520.525 243.263 519.81 242.972C519.094 242.68 518.321 242.556 517.55 242.609C516.533 242.658 515.54 242.931 514.641 243.41C513.743 243.889 512.963 244.562 512.356 245.379C511.897 245.839 511.499 246.354 511.169 246.913V263.212H507.583V248.718C507.628 247.914 507.513 247.109 507.246 246.349C506.979 245.589 506.564 244.89 506.025 244.291C505.504 243.722 504.864 243.275 504.149 242.984C503.435 242.693 502.665 242.565 501.895 242.609C500.872 242.661 499.872 242.935 498.966 243.414C498.061 243.892 497.271 244.563 496.651 245.379C496.215 245.864 495.81 246.376 495.44 246.913V263.212H491.928V239.715H495.39V242.56Z" fill="black"/>
<path d="M534.49 239.765H538.076V242.733C538.827 241.471 540.015 240.529 541.415 240.086C543.536 239.236 545.857 239.017 548.099 239.456C550.342 239.894 552.409 240.972 554.053 242.56C556.126 245.062 557.27 248.204 557.292 251.454C557.315 254.704 556.214 257.861 554.177 260.392C549.873 265.092 543.567 264.028 538.423 261.307L538.076 261.085V272.536H534.49V239.765ZM548.934 244.044C545.966 242.114 541.638 242.56 538.151 247.234V256.806C541.786 260.714 546.485 261.085 549.601 258.809C550.694 257.881 551.559 256.715 552.131 255.4C552.703 254.086 552.967 252.658 552.903 251.226C552.839 249.794 552.447 248.395 551.759 247.137C551.071 245.88 550.105 244.796 548.934 243.969" fill="black"/>
<path d="M310.892 213.572H243.127V217.48H310.892V213.572Z" fill="black"/>
<path d="M673.755 213.572H365.45V217.48H673.755V213.572Z" fill="black"/>
<path fill-rule="evenodd" clip-rule="evenodd" d="M434.056 260.095C435.164 260.133 436.268 259.931 437.292 259.504C438.316 259.078 439.237 258.436 439.991 257.622C441.605 255.942 442.493 253.694 442.464 251.365C442.482 249.022 441.596 246.763 439.991 245.058C439.251 244.226 438.333 243.573 437.305 243.144C436.278 242.716 435.167 242.525 434.056 242.584C432.939 242.542 431.826 242.74 430.793 243.167C429.76 243.594 428.831 244.239 428.071 245.058C426.445 246.75 425.556 249.018 425.597 251.365C425.573 252.52 425.778 253.668 426.203 254.743C426.628 255.817 427.263 256.796 428.071 257.622C428.841 258.428 429.772 259.065 430.802 259.49C431.833 259.916 432.941 260.122 434.056 260.095ZM434.056 263.484C432.465 263.536 430.881 263.257 429.404 262.665C427.927 262.074 426.589 261.182 425.474 260.046C424.351 258.883 423.473 257.507 422.891 255.999C422.309 254.491 422.035 252.881 422.086 251.266C422.011 249.632 422.274 248.001 422.857 246.474C423.44 244.946 424.33 243.555 425.474 242.386C426.581 241.237 427.916 240.333 429.395 239.732C430.873 239.131 432.461 238.847 434.056 238.899C435.644 238.84 437.227 239.121 438.698 239.722C440.169 240.324 441.496 241.232 442.588 242.386C443.723 243.543 444.613 244.917 445.204 246.425C445.795 247.934 446.074 249.547 446.026 251.167C446.064 252.785 445.78 254.395 445.19 255.903C444.6 257.41 443.715 258.785 442.588 259.947C441.479 261.077 440.149 261.965 438.681 262.556C437.212 263.148 435.638 263.43 434.056 263.385" fill="black"/>
<path fill-rule="evenodd" clip-rule="evenodd" d="M573.665 260.096C574.773 260.12 575.873 259.913 576.895 259.487C577.917 259.061 578.839 258.426 579.601 257.622C581.219 255.945 582.108 253.695 582.074 251.365C582.097 249.021 581.211 246.761 579.601 245.058C578.838 244.245 577.916 243.598 576.893 243.155C575.87 242.713 574.768 242.485 573.653 242.485C572.539 242.485 571.436 242.713 570.413 243.155C569.39 243.598 568.468 244.245 567.705 245.058C566.894 245.891 566.257 246.878 565.832 247.962C565.407 249.045 565.203 250.202 565.232 251.365C565.199 252.521 565.401 253.672 565.826 254.748C566.251 255.823 566.89 256.801 567.705 257.622C568.467 258.426 569.389 259.061 570.411 259.487C571.434 259.913 572.534 260.12 573.641 260.096M573.641 263.484C572.049 263.547 570.462 263.273 568.983 262.681C567.504 262.088 566.167 261.19 565.059 260.046C563.93 258.887 563.048 257.512 562.466 256.003C561.883 254.494 561.613 252.882 561.671 251.266C561.595 249.628 561.862 247.993 562.454 246.464C563.046 244.935 563.95 243.546 565.108 242.387C566.209 241.229 567.544 240.32 569.024 239.719C570.503 239.117 572.094 238.838 573.69 238.899C575.285 238.849 576.872 239.133 578.35 239.734C579.828 240.335 581.164 241.238 582.272 242.387C583.38 243.557 584.246 244.936 584.819 246.443C585.392 247.95 585.661 249.555 585.611 251.167C585.696 254.419 584.497 257.573 582.272 259.947C581.156 261.082 579.818 261.973 578.341 262.564C576.864 263.156 575.281 263.436 573.69 263.385" fill="black"/>
<path fill-rule="evenodd" clip-rule="evenodd" d="M599.832 258.241L606.534 239.295H608.785L615.487 258.191L622.61 239.691H626.023L616.476 264.251H614.3L607.573 245.849L600.871 264.251H598.669L589.123 239.691H592.734L599.832 258.241Z" fill="black"/>
<path fill-rule="evenodd" clip-rule="evenodd" d="M646.253 248.867C646.048 247.569 645.502 246.348 644.67 245.33C644.044 244.562 643.244 243.953 642.337 243.554C641.43 243.154 640.441 242.974 639.452 243.03C638.495 243.045 637.553 243.275 636.697 243.703C635.841 244.131 635.092 244.746 634.506 245.503C633.717 246.508 633.137 247.66 632.799 248.892L646.253 248.867ZM632.304 251.785C632.294 252.938 632.519 254.081 632.966 255.145C633.412 256.208 634.071 257.169 634.901 257.969C635.698 258.811 636.662 259.479 637.73 259.931C638.799 260.382 639.949 260.607 641.109 260.59C642.543 260.589 643.965 260.338 645.313 259.848C646.74 259.305 648.062 258.518 649.221 257.524L650.086 256.856V260.665H649.913C648.656 261.725 647.225 262.562 645.684 263.138C643.413 263.947 640.965 264.13 638.598 263.669C636.231 263.208 634.032 262.119 632.23 260.516C631.1 259.358 630.214 257.983 629.628 256.474C629.041 254.966 628.766 253.354 628.817 251.736C628.709 248.528 629.753 245.386 631.76 242.881C632.743 241.808 633.936 240.948 635.264 240.354C636.592 239.759 638.028 239.443 639.483 239.424C640.938 239.406 642.382 239.685 643.725 240.246C645.068 240.806 646.282 241.636 647.292 242.684C649.164 245.07 650.144 248.036 650.062 251.068V251.563L632.304 251.785Z" fill="black"/>
<path fill-rule="evenodd" clip-rule="evenodd" d="M661.091 242.782C661.566 241.928 662.204 241.176 662.97 240.57C663.735 239.963 664.613 239.513 665.553 239.247C666.493 238.98 667.476 238.902 668.446 239.016C669.416 239.131 670.354 239.435 671.207 239.913C671.207 239.913 671.38 239.913 671.479 240.037V244.044C671.182 243.722 671.479 244.044 671.182 243.871C665.568 240.729 662.179 245.256 661.067 248.224V263.707H657.629V239.072H661.091V242.782Z" fill="black"/>
</svg>
